<svg xmlns="http://www.w3.org/2000/svg" aria-hidden="true" style="width:0;height:0;position:absolute;overflow:hidden"><defs><symbol id="icon-search" viewBox="0 0 32 32"><path d="M23.484 20.688a12.901 12.901 0 0 0 2.514-7.684c0-7.18-5.82-13-13-13s-13 5.82-13 13 5.82 13 13 13c2.894 0 5.567-.946 7.727-2.545l-.035.025h-.002c.06.08.124.156.196.23l7.7 7.7a2 2 0 0 0 2.83-2.828l-7.7-7.7a2 2 0 0 0-.225-.196l-.005-.004zM24 13c0 6.075-4.925 11-11 11S2 19.075 2 13 6.925 2 13 2s11 4.925 11 11z"/></symbol></defs></svg>